<svg width="30" height="29" viewBox="0 0 30 29" fill="none" xmlns="http://www.w3.org/2000/svg">
<path fill-rule="evenodd" clip-rule="evenodd" d="M2.91667 9.84672H5.83301C5.83343 10.3623 6.12882 10.8586 6.63948 11.1048C7.35986 11.4523 8.23585 11.1706 8.59604 10.4758L8.92213 9.84672H20.2445L20.5706 10.4758C20.9308 11.1706 21.8068 11.4523 22.5272 11.1048C23.0378 10.8586 23.3332 10.3623 23.3337 9.84672H26.25V12.66H2.91667V9.84672ZM22.0471 7.03346H26.25C27.8608 7.03346 29.1667 8.293 29.1667 9.84672V12.66C29.1667 13.8416 28.4114 14.853 27.3412 15.2697C27.3461 15.337 27.3487 15.4048 27.3487 15.4732C27.3487 15.6785 27.3254 15.8831 27.2792 16.0835L25.0107 25.9299C24.7142 27.2171 23.5305 28.1329 22.1635 28.1329H7.00317C5.63613 28.1329 4.45251 27.2171 4.15595 25.9299L1.88744 16.0835C1.8243 15.8095 1.80494 15.5359 1.82487 15.2695C0.754941 14.8526 0 13.8413 0 12.66V9.84672C0 8.293 1.30584 7.03346 2.91667 7.03346H7.11953L10.3623 0.777874C10.7225 0.0830291 11.5985 -0.198612 12.3189 0.14881C13.0392 0.496232 13.3312 1.34116 12.971 2.036L10.3805 7.03346H18.7862L16.1956 2.036C15.8354 1.34116 16.1274 0.496232 16.8478 0.14881C17.5682 -0.198612 18.4442 0.0830291 18.8044 0.777874L22.0471 7.03346ZM4.73465 15.4732H24.432L22.1635 25.3196H7.00317L4.73465 15.4732Z" fill="#5F413C"/>
</svg>
